<?xml version="1.0" encoding="iso-8859-1"?>
<!-- Generator: Adobe Illustrator 19.0.0, SVG Export Plug-In . SVG Version: 6.00 Build 0)  -->
<svg version="1.1" id="Capa_1" xmlns="http://www.w3.org/2000/svg" xmlns:xlink="http://www.w3.org/1999/xlink" x="0px" y="0px"
	 viewBox="0 0 496 496" style="enable-background:new 0 0 496 496;" xml:space="preserve">
<g>
	<path style="fill:#333333;" d="M472.616,176c0-30.88-25.128-56-56-56h-25.088c19.704-10.92,33.088-31.92,33.088-56
		c0-35.288-28.712-64-64-64s-64,28.712-64,64c0,24.24,13.544,45.376,33.464,56.232c-9.664,0.48-19.28,1.752-28.712,3.848
		c-9.776,2.176-19.216,5.328-28.256,9.28c-0.264-1.8-0.496-3.6-0.496-5.36V88c0-48.52-39.48-88-88-88s-88,39.48-88,88v40
		c0,34.848-51.456,64.76-51.976,65.056l-11.208,6.432l55.184,36.792V256c0,10.472,6.776,19.296,16.144,22.568
		c-37.376,45.848-63.256,100.192-74.88,158.32l-6.496,32.464l6.696,2.232c3,1,74.16,24.416,154.536,24.416
		c38.144,0,76.168-5.448,104-10.696V496h144V356.848c17.352-9.112,28.912-25.744,31.448-44.848h8.552V176z M456.616,176v120h-24v-88
		h-16v56h-48v-36.152l40-32V176h12.944l16.752-33.512C449.304,149.624,456.616,161.952,456.616,176z M318.032,264
		c-1.352-4.992-3.848-9.744-7.76-13.656L307.928,248l6.344-6.344c9.736-9.736,9.736-25.576,0-35.312
		c-9.424-9.44-25.888-9.44-35.312,0l-6.344,6.344l-10.344-10.344l-11.312,11.312L277.304,240l-21.176,21.176l-27.8-23.16
		c-7.44-6.2-11.712-15.32-11.712-25.016c0-6.832,2.096-13.376,6.064-18.928c15.64-21.896,37.224-38.44,61.976-48.096L299.672,176
		h12.944v19.84l40,32V264H318.032z M302.96,230.344l-6.344,6.344l-2.344-2.344L283.928,224l6.344-6.344
		c3.392-3.392,9.296-3.392,12.688,0C306.448,221.152,306.448,226.848,302.96,230.344z M288.616,251.312l10.344,10.344
		c5.704,5.704,5.704,14.984,0,20.688s-14.984,5.704-20.688,0L267.928,272L288.616,251.312z M176.616,280h8
		c2.816,0,5.488-0.576,8-1.472V304c0,4.408-3.584,8-8,8s-8-3.592-8-8V280z M208.464,254.488
		C207.672,241.968,197.336,232,184.616,232h-40v-24H201c-0.168,1.656-0.384,3.312-0.384,5c0,13.984,6,27.12,16.424,36.336
		C214.592,251.672,211.648,253.368,208.464,254.488z M128.616,232h-24v-8h24V232z M113.152,180.744
		c1.08,5.688,3.816,10.928,8,15.112l7.464,7.456V208h-24C104.616,197.88,107.784,188.488,113.152,180.744z M139.928,192
		l-7.464-7.464c-2.48-2.48-3.848-5.784-3.848-9.296c0-5.664,3.608-10.68,8.992-12.472l-0.096-0.296
		c4.752-1.584,9.824-2.472,15.104-2.472h1.816c-1.24,2.904-1.816,5.728-1.816,8l15.992,0.232c0.096-1.376,1.28-8.232,16.008-8.232
		s15.912,6.856,16,8h16c0-2.272-0.576-5.096-1.816-8h1.816c4.144,0,7.448,3.208,7.848,7.248c-5.296,5.472-10.32,11.248-14.8,17.528
		c-1.64,2.296-3.016,4.728-4.224,7.224H139.928z M184.616,40c26.472,0,48,21.528,48,48s-21.528,48-48,48s-48-21.528-48-48
		S158.144,40,184.616,40z M360.616,180.304L340.928,136h39.376L360.616,180.304z M423.328,136.68L411.672,160h-19.056v28.16
		l-24,19.2v-5.656l29.2-65.704h18.8C418.912,136,421.136,136.304,423.328,136.68z M312.616,64c0-26.472,21.528-48,48-48
		s48,21.528,48,48s-21.528,48-48,48S312.616,90.472,312.616,64z M304.84,139.696c6.224-1.384,12.552-2.336,18.904-2.944
		l28.872,64.952v5.656l-24-19.2V160H309.56l-9.504-19.008C301.656,140.576,303.224,140.056,304.84,139.696z M256.616,88v40
		c0,4.232,0.728,8.528,1.792,12.84c-7.52,4.304-14.68,9.192-21.376,14.712c-4.224-6.896-11.76-11.552-20.416-11.552h-1.088
		c19.704-10.92,33.088-31.92,33.088-56c0-28.776-19.096-53.16-45.272-61.192c0.776-2.136,1.272-4.408,1.272-6.808
		c0-0.392-0.096-0.76-0.112-1.144C234.552,27.512,256.616,55.2,256.616,88z M188.616,20c0,2.208-1.8,4-4,4s-4-1.792-4-4s1.8-4,4-4
		S188.616,17.792,188.616,20z M63.184,200.096c17.272-12.12,49.432-39.112,49.432-72.096V88c0-32.8,22.064-60.488,52.112-69.144
		c-0.016,0.384-0.112,0.752-0.112,1.144c0,2.4,0.496,4.672,1.272,6.808C139.712,34.84,120.616,59.224,120.616,88
		c0,24.08,13.384,45.08,33.088,56h-1.088c-35.288,0-64,28.712-64,64v9.048L63.184,200.096z M104.616,248h24h8h48
		c4.416,0,8,3.592,8,8s-3.584,8-8,8h-72c-4.416,0-8-3.592-8-8V248z M184.616,480c-63.832,0-123.192-15.768-142.736-21.52
		l3.688-18.456C57.416,380.76,84.688,325.544,124.36,280h36.256v24c0,13.232,10.768,24,24,24s24-10.768,24-24v-32.904
		c7.912-1.632,15.144-5.6,20.728-11.408l21.888,18.24l15.728,15.728c5.968,5.976,13.816,8.96,21.656,8.96v166.392
		C261.28,474.288,222.968,480,184.616,480z M368.616,480v-16h-16v16h-48V298.024c2-1.232,3.92-2.64,5.656-4.368
		c3.912-3.912,6.416-8.664,7.76-13.656h98.584v200L368.616,480L368.616,480z M432.616,337.728V312H447.8
		C445.936,322.16,440.576,331.208,432.616,337.728z"/>
	<rect x="352.616" y="312" style="fill:#333333;" width="16" height="136"/>
	<rect x="176.616" y="168" style="fill:#333333;" width="16" height="16"/>
	<rect x="136.616" y="168" style="fill:#333333;" width="16" height="16"/>
</g>
<g>
	<circle style="fill:#FFA64D;" cx="88.616" cy="424" r="16"/>
	<circle style="fill:#FFA64D;" cx="144.616" cy="432" r="16"/>
	<circle style="fill:#FFA64D;" cx="200.616" cy="432" r="16"/>
	<circle style="fill:#FFA64D;" cx="256.616" cy="424" r="16"/>
</g>
<g>
</g>
<g>
</g>
<g>
</g>
<g>
</g>
<g>
</g>
<g>
</g>
<g>
</g>
<g>
</g>
<g>
</g>
<g>
</g>
<g>
</g>
<g>
</g>
<g>
</g>
<g>
</g>
<g>
</g>
</svg>
