<?xml version="1.0" encoding="iso-8859-1"?>
<!-- Generator: Adobe Illustrator 19.0.0, SVG Export Plug-In . SVG Version: 6.00 Build 0)  -->
<svg version="1.1" id="Capa_1" xmlns="http://www.w3.org/2000/svg" xmlns:xlink="http://www.w3.org/1999/xlink" x="0px" y="0px"
	 viewBox="0 0 512 512" style="enable-background:new 0 0 512 512;" xml:space="preserve">
<path style="fill:#FAC55A;" d="M300.211,210.494c-25.43-78.82-109.941-122.101-188.761-96.66
	c-78.82,25.43-122.101,109.941-96.66,188.761c25.43,78.82,109.941,122.101,188.761,96.66
	C282.371,373.825,325.651,289.315,300.211,210.494z M157.47,376.545c-90.001,0-147.403-95.304-106.741-174.681
	c48.42-94.585,188.006-84.197,220.931,17.84C296.76,297.501,238.449,376.545,157.47,376.545z"/>
<path style="fill:#F0A835;" d="M400.252,483.811c-78.873,25.265-163.293-18.181-188.558-97.054
	c-20.864-65.114,5.11-134.01,59.196-170.287c0.348,1.011,0.696,2.032,1.024,3.062c3.13,9.777,4.949,19.57,5.559,29.212
	c-11.691,9.785-21.837,22.225-29.628,37.358c-14.67,28.49-17.357,60.984-7.581,91.495c32.717,102.129,172.285,112.79,220.893,18.311
	c14.669-28.49,17.357-60.984,7.581-91.505c-23.576-73.609-102.663-99.495-163.158-73.051c-1.165-7.002-2.861-14.006-5.096-20.971
	c-0.884-2.752-1.839-5.464-2.863-8.136c3.623-1.492,7.336-2.845,11.128-4.057c78.873-25.265,163.293,18.191,188.558,97.064
	C522.582,374.126,479.126,458.546,400.252,483.811z"/>
<path style="fill:#DC527C;" d="M430.755,136.662c-0.441,0.322-1.059,0.123-1.229-0.397c-1.355-4.153-7.281-19-24.103-24.428
	c-17.513-5.651-34.875,6.855-41.038,25.955c-6.443,19.967-0.53,47.569,26.741,79.631c5.72,6.725,14.78,9.649,23.353,7.535
	c40.867-10.076,61.797-29.017,68.24-48.984c6.163-19.1-0.616-39.395-18.129-45.045C447.768,125.5,434.282,134.084,430.755,136.662z"
	/>
<path style="fill:#BF476C;" d="M464.59,130.928c-2.085-0.673-4.118-1.129-6.087-1.409c3.453,8.337,3.744,18.554,0.55,28.455
	c-6.443,19.967-27.373,38.908-68.24,48.984c-2.498,0.616-5.035,0.792-7.521,0.583c2.39,3.244,4.99,6.537,7.834,9.882
	c5.72,6.725,14.781,9.649,23.353,7.535c40.867-10.076,61.797-29.017,68.24-48.984C488.881,156.874,482.103,136.579,464.59,130.928z"
	/>
<path style="fill:#34B2CC;" d="M91.631,47.192c0.441,0.322,1.059,0.123,1.229-0.397c1.355-4.153,7.281-19,24.103-24.428
	c17.513-5.651,34.875,6.855,41.038,25.955c6.443,19.967,0.53,47.569-26.741,79.631c-5.72,6.725-14.78,9.649-23.353,7.535
	C67.04,125.411,46.11,106.47,39.667,86.503c-6.163-19.1,0.616-39.395,18.129-45.045C74.618,36.03,88.104,44.614,91.631,47.192z"/>
<path style="fill:#2E9EB5;" d="M158.001,48.322c-6.163-19.1-23.524-31.605-41.038-25.955c-5.56,1.794-9.923,4.618-13.33,7.744
	c11.679,2.801,21.668,13.013,26.034,26.544c6.327,19.61,0.722,46.587-25.314,77.918c1.168,0.312,2.351,0.617,3.553,0.914
	c8.573,2.114,17.633-0.81,23.353-7.535C158.53,95.891,164.443,68.289,158.001,48.322z"/>
<path d="M504.413,292.923c-9.541-29.78-27.135-55.356-51.208-74.638c18.779-10.287,31.415-23.943,36.612-40.049
	c7.714-23.908-2.373-47.842-22.965-54.486c-13.991-4.514-26.004-1.016-33.51,2.622c-3.965-7.34-11.667-17.197-25.659-21.712
	c-10.5-3.388-21.584-1.766-31.204,4.569c-8.857,5.832-15.702,15.144-19.276,26.22c-4.679,14.502-3.301,30.918,3.752,48.15
	c-18.403-0.783-36.692,1.692-54.533,7.408c-1.681,0.536-3.344,1.105-4.99,1.692c-12.073-27.448-31.476-50.515-56.793-67.326
	c-25.333-16.821-55.227-25.973-85.394-26.345c2.523-5.393,4.509-10.729,5.928-15.991c1.078-3.999-1.289-8.115-5.289-9.193
	c-3.994-1.081-8.117,1.289-9.194,5.289c-2.087,7.737-5.645,15.749-10.625,23.964c-0.029,0.048-0.058,0.096-0.086,0.145
	c-3.946,6.489-8.78,13.104-14.485,19.811c-3.854,4.529-10.073,6.538-15.844,5.112c-34.12-8.412-56.459-24.04-62.901-44.005
	c-5.217-16.17,0.498-31.476,13.294-35.605c13.355-4.309,24.125,2.47,27.102,4.646c2.142,1.566,4.923,2.018,7.445,1.207
	c2.523-0.812,4.521-2.802,5.347-5.328c1.147-3.513,5.922-15.308,19.276-19.616c12.798-4.134,26.381,4.951,31.593,21.104
	c0.073,0.228,0.146,0.456,0.215,0.687c1.194,3.965,5.376,6.211,9.344,5.02c3.967-1.194,6.214-5.378,5.02-9.344
	c-0.095-0.314-0.192-0.625-0.297-0.951c-7.714-23.908-29.885-37.436-50.48-30.79c-13.994,4.514-21.697,14.375-25.661,21.711
	c-7.509-3.637-19.522-7.136-33.51-2.621c-20.592,6.644-30.679,30.576-22.965,54.485c4.997,15.487,16.871,28.711,34.474,38.851
	c-25.2,17.714-44.923,42.764-56.223,71.714c-13.127,33.629-14.239,71.105-3.129,105.524c9.974,30.915,28.889,57.584,54.699,77.123
	c1.355,1.025,2.944,1.521,4.522,1.521c2.269,0,4.511-1.025,5.986-2.973c2.5-3.303,1.85-8.007-1.452-10.507
	c-23.345-17.672-40.454-41.798-49.478-69.771c-20.072-62.186,5.465-130.96,60.784-165.018c5.912,2.4,12.269,4.528,19.043,6.366
	C77.384,153.295,57.101,172.81,44,198.402c-20.39,39.806-18.594,86.421,4.804,124.695c23.315,38.137,63.918,60.904,108.615,60.904
	c15.082,0,29.703-2.566,43.591-7.623c0.986,4.232,2.148,8.445,3.489,12.631c0.188,0.585,0.389,1.163,0.583,1.745
	c-1.291,0.457-2.586,0.901-3.885,1.319c-34.33,11.082-71.233,8.796-103.908-6.437c-3.755-1.749-8.216-0.125-9.967,3.629
	c-1.75,3.754-0.125,8.217,3.629,9.967c21.052,9.813,43.686,14.765,66.422,14.765c16.273,0,32.599-2.538,48.427-7.647
	c1.565-0.504,3.126-1.042,4.682-1.597c14.481,32.848,39.546,59.556,71.911,76.213c22.62,11.642,47.158,17.534,71.886,17.533
	c16.154,0,32.393-2.517,48.22-7.587c40.059-12.833,72.722-40.493,91.97-77.886C513.713,375.635,517.247,332.981,504.413,292.923z
	 M371.478,140.055c2.529-7.838,7.235-14.336,13.251-18.298c2.914-1.919,7.073-3.831,12.069-3.831c1.971,0,4.072,0.298,6.28,1.01
	c13.355,4.309,18.131,16.104,19.277,19.621c0.824,2.52,2.82,4.508,5.339,5.32c2.52,0.813,5.301,0.365,7.443-1.197
	c0.001-0.001,0.002-0.002,0.004-0.003c2.982-2.182,13.754-8.96,27.106-4.651c12.796,4.129,18.512,19.437,13.295,35.605
	c-6.443,19.966-28.781,35.594-62.9,44.006c-5.772,1.421-11.994-0.583-15.845-5.112C374.028,185.757,365.037,160.021,371.478,140.055
	z M310.991,205.294c18.874-6.046,38.287-8.095,57.765-6.1c3.36,5.686,7.302,11.422,11.812,17.173
	c-0.349-0.071-0.693-0.156-1.043-0.224c-22.809-4.439-46.752-2.68-68.381,4.908c-1.002-4.377-2.195-8.725-3.568-12.999
	c-0.155-0.484-0.313-0.97-0.475-1.456C308.385,206.147,309.683,205.712,310.991,205.294z M150.824,114.168
	c64.222-3.079,122.334,37.008,142.201,98.588c18.331,56.797-1.212,119.384-47.588,155.818c-1.441-5.66-2.437-11.373-2.986-17.098
	c28.689-25.783,44.387-63.318,42.351-101.449c0.105-0.587,0.143-1.189,0.105-1.797c-0.658-10.405-2.644-20.843-5.883-30.964
	c-0.345-1.108-0.72-2.205-1.097-3.292c-0.252-0.726-0.619-1.392-1.065-1.995c-17.532-47.497-59.699-79.054-110.614-82.538
	c-9.312-0.636-18.459-0.289-27.345,0.951C143.386,124.953,147.366,119.54,150.824,114.168z M242.467,330.06
	c1.362-13.977,5.371-27.707,11.99-40.563c4.221-8.187,9.258-15.66,15.021-22.385C267.263,290.225,257.788,312.311,242.467,330.06z
	 M157.417,369.002c-39.429,0-75.248-20.085-95.815-53.728C40.95,281.493,39.36,240.36,57.35,205.24
	c20.811-40.653,62.144-63.957,107.875-60.835c43.691,2.99,80.077,29.398,96.274,69.419c-25.292,18.519-44.857,44.727-55.431,74.422
	c-8.458,23.75-11.06,48.609-7.794,73.138C185.321,366.439,171.604,369.002,157.417,369.002z M481.128,406.163
	c-17.415,33.83-46.966,58.856-83.209,70.466c-36.242,11.61-74.831,8.413-108.663-8.998c-33.834-17.413-58.862-46.96-70.472-83.197
	c-18.178-56.743,1.402-119.182,47.686-155.553c1.423,5.567,2.417,11.193,2.976,16.82c-11.458,10.277-20.975,22.677-28.322,36.927
	c-15.581,30.259-18.442,64.785-8.055,97.222c0.332,1.036,0.693,2.055,1.047,3.077c0.055,0.192,0.123,0.383,0.195,0.572
	c16.879,47.965,58.488,80.174,109.489,84.394c3.767,0.312,7.504,0.466,11.213,0.466c47.96-0.002,90.498-25.754,112.776-69.053
	c15.58-30.257,18.441-64.787,8.055-97.232c-2.247-7.012-5.039-13.802-8.301-20.18c-1.887-3.689-6.407-5.147-10.092-3.264
	c-3.689,1.886-5.15,6.404-3.264,10.092c2.893,5.656,5.372,11.689,7.371,17.926c9.163,28.628,6.64,59.095-7.107,85.792
	c-21.175,41.152-63.104,64.339-109.414,60.503c-43.141-3.57-78.671-29.839-94.648-69.299c25.387-18.578,45.003-44.906,55.555-74.732
	c8.367-23.652,10.936-48.388,7.693-72.791c42.774-16.225,92.818-5.094,123.443,28.026c1.479,1.599,3.49,2.408,5.509,2.408
	c1.821,0,3.648-0.659,5.09-1.993c3.041-2.813,3.227-7.558,0.415-10.599c-8.301-8.978-17.811-16.574-28.256-22.688
	c6.356-1.696,12.34-3.652,17.947-5.841c24.865,17.877,42.938,42.703,52.345,72.065C501.739,333.742,498.543,372.333,481.128,406.163
	z"/>
<g>
</g>
<g>
</g>
<g>
</g>
<g>
</g>
<g>
</g>
<g>
</g>
<g>
</g>
<g>
</g>
<g>
</g>
<g>
</g>
<g>
</g>
<g>
</g>
<g>
</g>
<g>
</g>
<g>
</g>
</svg>
