<?xml version="1.0" encoding="iso-8859-1"?>
<!-- Generator: Adobe Illustrator 19.0.0, SVG Export Plug-In . SVG Version: 6.00 Build 0)  -->
<svg version="1.1" id="Capa_1" xmlns="http://www.w3.org/2000/svg" xmlns:xlink="http://www.w3.org/1999/xlink" x="0px" y="0px"
	 viewBox="0 0 480.004 480.004" style="enable-background:new 0 0 480.004 480.004;" xml:space="preserve">
<path style="fill:#93CAE2;" d="M306.963,384.002h125.928l-35.552-80H295.115L306.963,384.002z"/>
<g>
	<path style="fill:#06AAE9;" d="M397.339,304.002l-21.336-48h-88l7.112,48H397.339z"/>
	<path style="fill:#06AAE9;" d="M320.003,472.002h152l-39.112-88H306.963L320.003,472.002z"/>
</g>
<path style="fill:#FBCC34;" d="M183.115,304.002l-14.816,80h138.664l-11.848-80H183.115z"/>
<path style="fill:#93CAE2;" d="M183.115,304.002H82.667l-35.552,80h121.184L183.115,304.002z"/>
<path style="fill:#06AAE9;" d="M47.115,384.002l-39.112,88h144l16.296-88H47.115z"/>
<g>
	<path style="fill:#93CAE2;" d="M306.963,384.002H168.299l-16.296,88h168L306.963,384.002z"/>
	<path style="fill:#93CAE2;" d="M295.115,304.002l-7.112-48h-96l-8.888,48H295.115z"/>
</g>
<path style="fill:#06AAE9;" d="M192.003,256.002h-88l-21.336,48h100.448L192.003,256.002z"/>
<path style="fill:#999999;" d="M272.003,104.002h32c0-11.242-2.979-22.283-8.632-32h-23.368V104.002z"/>
<path style="fill:#E6E6E6;" d="M240.003,72.002v-32c-11.242,0-22.283,2.979-32,8.632v23.368H240.003z"/>
<path style="fill:#999999;" d="M272.003,72.002V48.634c-9.717-5.653-20.758-8.632-32-8.632v32H272.003z"/>
<g>
	<path style="fill:#E6E6E6;" d="M295.371,72.002c-5.62-9.692-13.676-17.748-23.368-23.368v23.368H295.371z"/>
	<path style="fill:#E6E6E6;" d="M208.003,104.002h32v32h-32V104.002z"/>
</g>
<path style="fill:#999999;" d="M240.003,104.002h32v32h-32V104.002z"/>
<path style="fill:#E6E6E6;" d="M240.003,72.002h32v32h-32V72.002z"/>
<g>
	<path style="fill:#999999;" d="M208.003,72.002h32v32h-32V72.002z"/>
	<path style="fill:#999999;" d="M208.003,48.634c-9.692,5.62-17.748,13.676-23.368,23.368h23.368V48.634z"/>
</g>
<path style="fill:#E6E6E6;" d="M240.003,136.002v32c11.242,0,22.283-2.979,32-8.632v-23.368H240.003z"/>
<path style="fill:#999999;" d="M208.003,136.002v23.368c9.717,5.653,20.758,8.632,32,8.632v-32H208.003z"/>
<path style="fill:#E6E6E6;" d="M272.003,104.002v32h23.368c5.653-9.717,8.632-20.758,8.632-32H272.003z"/>
<path style="fill:#999999;" d="M272.003,159.37c9.692-5.62,17.748-13.676,23.368-23.368h-23.368V159.37z"/>
<g>
	<path style="fill:#E6E6E6;" d="M208.003,72.002h-23.368c-5.653,9.717-8.632,20.758-8.632,32h32V72.002z"/>
	<path style="fill:#E6E6E6;" d="M184.635,136.002c5.62,9.692,13.676,17.748,23.368,23.368v-23.368H184.635z"/>
</g>
<path style="fill:#999999;" d="M208.003,104.002h-32c0,11.242,2.979,22.283,8.632,32h23.368V104.002z"/>
<path d="M383.315,252.754c-1.284-2.89-4.15-4.752-7.312-4.752h-272c-3.162,0-6.028,1.862-7.312,4.752l-96,216
	c-1.794,4.038,0.025,8.765,4.063,10.559c1.023,0.454,2.13,0.689,3.249,0.689h464c4.418,0.001,8-3.581,8.001-7.999
	c0-1.119-0.235-2.226-0.689-3.249L383.315,252.754z M177.915,376.002l11.856-64h98.44l9.48,64H177.915z M300.067,392.002l10.664,72
	H161.603l13.336-72H300.067z M87.883,312.002h0.12h85.496l-11.856,64H59.427L87.883,312.002z M192.731,296.002l5.928-32h82.44
	l4.744,32H192.731z M304.387,312.002h87.616h0.12l28.456,64H313.867L304.387,312.002z M385.027,296.002h-83.008l-4.744-32h73.528
	L385.027,296.002z M109.203,264.002h73.2l-5.928,32H94.979L109.203,264.002z M52.315,392.002h106.4l-13.336,72H20.315
	L52.315,392.002z M326.907,464.002l-10.672-72h111.456l32,72H326.907z"/>
<path d="M240.003,0.002c-4.418,0-8,3.582-8,8v24.472c-39.518,4.418-67.972,40.036-63.554,79.554
	c4.418,39.518,40.036,67.972,79.554,63.554s67.972-40.036,63.554-79.554c-3.738-33.43-30.124-59.817-63.554-63.554V8.002
	C248.003,3.584,244.421,0.002,240.003,0.002z M232.003,64.002h-16v-8c-0.039-0.784-0.196-1.558-0.464-2.296
	c5.191-2.535,10.746-4.244,16.464-5.064V64.002z M288.003,80.002c0.784-0.039,1.558-0.196,2.296-0.464
	c2.534,5.191,4.243,10.746,5.064,16.464h-15.36v-16H288.003z M290.299,128.466c-0.738-0.268-1.512-0.425-2.296-0.464h-8v-16h15.36
	C294.542,117.72,292.833,123.275,290.299,128.466z M184.643,112.002h15.36v16h-8c-0.784,0.039-1.558,0.196-2.296,0.464
	C187.173,123.275,185.464,117.72,184.643,112.002z M189.707,79.538c0.738,0.268,1.512,0.425,2.296,0.464h8v16h-15.36
	C185.464,90.284,187.173,84.729,189.707,79.538z M232.003,128.002h-16v-16h16V128.002z M248.003,112.002h16v16h-16V112.002z
	 M216.003,152.002v-8h16v15.36c-5.718-0.82-11.273-2.529-16.464-5.064C215.807,153.56,215.964,152.786,216.003,152.002z
	 M248.003,144.002h16v8c0.039,0.784,0.196,1.558,0.464,2.296c-5.191,2.535-10.746,4.244-16.464,5.064V144.002z M264.003,96.002h-16
	v-16h16V96.002z M232.003,96.002h-16v-16h16V96.002z M264.467,53.706c-0.268,0.738-0.425,1.512-0.464,2.296v8h-16v-15.36
	C253.721,49.462,259.276,51.171,264.467,53.706z"/>
<path d="M72.003,64.002c-4.418,0-8,3.582-8,8v8h-8c-4.418,0-8,3.582-8,8s3.582,8,8,8h8v8c0,4.418,3.582,8,8,8s8-3.582,8-8v-8h8
	c4.418,0,8-3.582,8-8s-3.582-8-8-8h-8v-8C80.003,67.584,76.421,64.002,72.003,64.002z"/>
<path d="M408.003,136.002c-4.418,0-8,3.582-8,8v8h-8c-4.418,0-8,3.582-8,8s3.582,8,8,8h8v8c0,4.418,3.582,8,8,8s8-3.582,8-8v-8h8
	c4.418,0,8-3.582,8-8s-3.582-8-8-8h-8v-8C416.003,139.584,412.421,136.002,408.003,136.002z"/>
<path d="M344.003,0.002c-4.418,0-8,3.582-8,8v8h-8c-4.418,0-8,3.582-8,8s3.582,8,8,8h8v8c0,4.418,3.582,8,8,8s8-3.582,8-8v-8h8
	c4.418,0,8-3.582,8-8s-3.582-8-8-8h-8v-8C352.003,3.584,348.421,0.002,344.003,0.002z"/>
<path d="M136.003,184.002c-4.418,0-8,3.582-8,8v8h-8c-4.418,0-8,3.582-8,8s3.582,8,8,8h8v8c0,4.418,3.582,8,8,8s8-3.582,8-8v-8h8
	c4.418,0,8-3.582,8-8s-3.582-8-8-8h-8v-8C144.003,187.584,140.421,184.002,136.003,184.002z"/>
<g>
</g>
<g>
</g>
<g>
</g>
<g>
</g>
<g>
</g>
<g>
</g>
<g>
</g>
<g>
</g>
<g>
</g>
<g>
</g>
<g>
</g>
<g>
</g>
<g>
</g>
<g>
</g>
<g>
</g>
</svg>
