<?xml version="1.0" encoding="iso-8859-1"?>
<!-- Generator: Adobe Illustrator 19.0.0, SVG Export Plug-In . SVG Version: 6.00 Build 0)  -->
<svg version="1.1" id="Capa_1" xmlns="http://www.w3.org/2000/svg" xmlns:xlink="http://www.w3.org/1999/xlink" x="0px" y="0px"
	 viewBox="0 0 512 512" style="enable-background:new 0 0 512 512;" xml:space="preserve">
<path style="fill:#432521;" d="M142.5,15l15,200h30c16.5,0,30-13.5,30-30V90C217.5,48.64,183.85,15,142.5,15z"/>
<path style="fill:#63352F;" d="M142.5,15c24.81,0,45,33.64,45,75v95c0,16.5-13.5,30-30,30h-75c-24.85,0-45-20.15-45-45
	c0-10.74,3.77-20.6,10.05-28.34c-0.02-0.55-0.05-1.1-0.05-1.66c0-15.6,7.94-29.34,20-37.42V90C67.5,48.64,101.15,15,142.5,15z"/>
<path style="fill:#CC8073;" d="M169.504,54.001c-4.043,5.382-8.678,10.294-13.804,14.644l-13.2,66.354c24.853,0,45-20.147,45-45
	C187.5,75.28,180.431,62.211,169.504,54.001z"/>
<path style="fill:#E59F8F;" d="M157.5,90c0-7.732-0.655-14.999-1.8-21.354C140.008,81.964,119.694,90,97.5,90
	c0,24.853,20.147,45,45,45C150.784,135,157.5,114.853,157.5,90z"/>
<polygon style="fill:#E44670;" points="246.5,497 216.5,497 196.13,473.9 "/>
<g>
	<path style="fill:#FF6288;" d="M216.13,493.9L97.5,270c-15.05,11.32-25.71,28.16-28.95,47.52L38.5,497h178L216.13,493.9z"/>
	<polygon style="fill:#FF6288;" points="167.5,195 167.5,300 97.5,270 97.5,195 	"/>
</g>
<path style="fill:#E59F8F;" d="M157.5,165l10,30h-70v-10c0-11.05,8.95-20,20-20H157.5z"/>
<path style="fill:#FFD764;" d="M167.5,165h-10v135l30-30v-85C187.5,173.95,178.55,165,167.5,165z"/>
<path style="fill:#FF973E;" d="M216.45,317.52c-3.24-19.36-13.9-36.2-28.95-47.52h-12.98l41.61,223.9c9.81,2.03,19.96,3.1,30.37,3.1
	L216.45,317.52z"/>
<path style="fill:#FFB751;" d="M195.12,317.52c-2.31-19.36-9.89-36.2-20.6-47.52H97.5v78c0,71.88,50.9,131.88,118.63,145.9
	L195.12,317.52z"/>
<path style="fill:#CC8073;" d="M369.5,40v95c24.853,0,45-20.147,45-45V70L369.5,40z"/>
<path style="fill:#E59F8F;" d="M324.5,70v20c0,24.853,20.147,45,45,45c8.284,0,15-20.147,15-45V45L324.5,70z"/>
<path style="fill:#FFD764;" d="M384.5,15l-20.42,29.93L384.5,70h30V45C414.5,28.5,401,15,384.5,15z"/>
<polygon style="fill:#FFE29E;" points="384.08,44.93 354.5,70 384.5,70 384.5,45 "/>
<path style="fill:#FFF1CF;" d="M384.5,15v25c0,1.68-0.14,3.33-0.42,4.93C381.72,59.11,369.32,70,354.5,70h-30V45
	c0-16.5,13.5-30,30-30C354.5,15,384.5,15,384.5,15z"/>
<path style="fill:#FFB751;" d="M369.5,255v75c24.853,0,45-20.147,45-45L369.5,255z"/>
<path style="fill:#FFD764;" d="M384.5,285l-30-30l-30,30c0,24.853,20.147,45,45,45C377.784,330,384.5,309.853,384.5,285z"/>
<path style="fill:#FF849B;" d="M394.5,165h-30l20,120h30V185C414.5,173.954,405.546,165,394.5,165z"/>
<path style="fill:#FFA4A9;" d="M364.5,165h-20c-11.046,0-20,8.954-20,20v100h60V185C384.5,173.954,375.546,165,364.5,165z"/>
<path d="M422,285v-92.786c50.271-3.842,90-45.976,90-97.214c0-4.143-3.358-7.5-7.5-7.5S497,90.857,497,95
	c0,43.343-33.605,78.961-76.125,82.229c-3.362-11.39-13.91-19.729-26.375-19.729h-50c-12.651,0-23.327,8.589-26.52,20.24
	c-24.683,1.761-46.67,13.43-61.984,31.051c-8.505-9.786-19.071-17.733-31.011-23.172c0.003-0.207,0.016-0.411,0.016-0.619V90
	c0-45.49-37.009-82.5-82.5-82.5S60,44.51,60,90v8.771c-12.381,9.758-19.748,24.541-19.994,40.407
	c-2.093,2.886-3.874,5.975-5.333,9.206C22.419,133.983,15,115.346,15,95c0-4.143-3.358-7.5-7.5-7.5S0,90.857,0,95
	c0,27.69,11.603,52.72,30.202,70.486C30.072,166.984,30,168.49,30,170c0,28.948,23.551,52.5,52.5,52.5H90v43.863
	c-15.369,12.682-25.562,30.269-28.848,49.918l-30.049,179.48c-0.364,2.175,0.248,4.4,1.672,6.084
	c1.425,1.684,3.519,2.654,5.725,2.654h208c1.951-0.007,3.704-0.738,5.028-1.936c0.148-0.134,0.284-0.267,0.415-0.404
	c1.231-1.303,2-3.033,2.054-4.943c0.004-0.141,0.004-0.282,0-0.424c-0.011-0.398-0.053-0.79-0.123-1.17l-30.025-179.341
	c-3.287-19.649-13.48-37.237-28.849-49.919v-44.618c11.835-2.412,21.653-10.42,26.579-21.127c9.86,4.99,18.491,12.068,25.299,20.657
	c-8.33,13.712-13.128,29.792-13.128,46.975c0,18.549,5.558,36.386,16.074,51.582c1.401,2.024,3.706,3.232,6.167,3.232
	c2.461,0,4.767-1.208,6.167-3.232c10.521-15.205,16.083-33.042,16.083-51.582c0-17.183-4.798-33.263-13.128-46.975
	c12.424-15.675,30.913-26.328,51.887-28.4v92.124c0,13.4,5.053,25.638,13.346,34.925l9.336,161.775l-24.553,8.185
	c-3.93,1.31-6.053,5.558-4.744,9.487c1.048,3.143,3.974,5.13,7.114,5.13c0.786,0,1.586-0.125,2.373-0.387l30-10
	c3.214-1.071,5.311-4.165,5.116-7.547l-8.921-154.609c7.059,3.537,15.015,5.541,23.434,5.541s16.375-2.003,23.434-5.541
	l-8.921,154.609c-0.195,3.382,1.901,6.476,5.116,7.547l30,10c0.787,0.262,1.586,0.387,2.373,0.387c3.14,0,6.066-1.987,7.114-5.13
	c1.31-3.93-0.814-8.178-4.744-9.487l-24.553-8.185l9.336-161.775C416.947,310.638,422,298.4,422,285z M55.029,140.99
	C55.015,140.661,55,140.332,55,140c0-12.538,6.232-24.196,16.672-31.185c2.08-1.393,3.328-3.729,3.328-6.232V90
	c0-37.22,30.28-67.5,67.5-67.5S210,52.78,210,90v90.328c-5.165-1.323-10.506-2.196-15.98-2.587
	c-3.193-11.651-13.87-20.241-26.52-20.241h-50c-12.465,0-23.013,8.339-26.375,19.729c-16.804-1.292-32.208-7.632-44.702-17.514
	c1.366-4.817,3.699-9.321,6.949-13.325c1.145-1.41,1.739-3.188,1.672-5.004L55.029,140.99z M150,187.5h-45V185
	c0-6.893,5.607-12.5,12.5-12.5H150V187.5z M105,202.5h45V240c0,4.143,3.358,7.5,7.5,7.5s7.5-3.357,7.5-7.5v-67.5h2.5
	c6.863,0,12.448,5.561,12.496,12.413c0,0.029-0.004,0.058-0.004,0.087c0,0.059,0.007,0.116,0.009,0.174V262.5h-75v-60H105z
	 M82.5,207.5c-18.07,0-33.194-12.847-36.722-29.887C58.786,185.786,73.847,190.98,90,192.214V207.5H82.5z M47.36,489.5
	l28.586-170.743c1.933-11.559,6.793-22.247,14.054-31.2V348c0,62.398,36.71,116.386,89.665,141.5L47.36,489.5L47.36,489.5z
	 M209.054,318.758l28.54,170.465C163.702,484.612,105,423.032,105,348v-70.5h79.923
	C197.794,287.911,206.331,302.471,209.054,318.758z M195,206.21v-13.333c4.296,0.425,8.488,1.208,12.545,2.323
	C204.941,200.297,200.452,204.276,195,206.21z M255.992,300.629c-4.763-10.054-7.242-21.056-7.242-32.379
	c0-11.554,2.6-22.512,7.246-32.319c4.646,9.808,7.246,20.766,7.246,32.319C263.241,279.569,260.76,290.571,255.992,300.629z
	 M344.5,172.5H362V195c0,4.143,3.358,7.5,7.5,7.5s7.5-3.357,7.5-7.5v-22.5h17.5c6.893,0,12.5,5.607,12.5,12.5v92.5h-75V185
	C332,178.107,337.607,172.5,344.5,172.5z M332.755,292.5h73.491c-3.484,17.096-18.635,30-36.745,30S336.239,309.596,332.755,292.5z"
	/>
<path d="M142.5,142.5c28.949,0,52.5-23.552,52.5-52.5c0-16.666-7.651-31.973-20.991-41.995c-1.59-1.194-3.589-1.708-5.56-1.43
	c-1.969,0.28-3.747,1.331-4.942,2.921C147.751,70.471,123.693,82.5,97.5,82.5c-4.142,0-7.5,3.357-7.5,7.5
	C90,118.948,113.551,142.5,142.5,142.5z M170.326,64.842C176.54,71.674,180,80.53,180,90c0,20.678-16.822,37.5-37.5,37.5
	c-18.228,0-33.46-13.072-36.813-30.334C130.731,95.111,153.631,83.66,170.326,64.842z"/>
<path d="M369.5,142.5c28.949,0,52.5-23.552,52.5-52.5V45c0-20.678-16.822-37.5-37.5-37.5h-30C333.822,7.5,317,24.322,317,45v45
	C317,118.948,340.551,142.5,369.5,142.5z M407,45v17.5h-22.52C389.199,56.228,392,48.436,392,40V23.79
	C400.729,26.886,407,35.223,407,45z M354.5,22.5H377V40c0,12.406-10.093,22.5-22.5,22.5H332V45C332,32.594,342.093,22.5,354.5,22.5z
	 M332,77.5h75V90c0,20.678-16.822,37.5-37.5,37.5S332,110.678,332,90V77.5z"/>
<g>
</g>
<g>
</g>
<g>
</g>
<g>
</g>
<g>
</g>
<g>
</g>
<g>
</g>
<g>
</g>
<g>
</g>
<g>
</g>
<g>
</g>
<g>
</g>
<g>
</g>
<g>
</g>
<g>
</g>
</svg>
