<svg id="Layer_1" enable-background="new 0 0 512 512" height="512" viewBox="0 0 512 512" width="512" xmlns="http://www.w3.org/2000/svg"><g><path d="m360.18 420.64c-3.064 0-6.088-.177-9.035-.536-7.525-.919-13.183-7.309-13.183-14.89v-1.445c.234-57.753-11.118-113.905-33.742-166.959-27.794-65.107-62.017-145.337-62.017-145.337-2.819-6.61-.555-14.29 5.398-18.313 5.954-4.024 13.925-3.261 19.005 1.821l241 241c5.858 5.857 5.858 15.355 0 21.213-8.198 8.199-18.704 14.921-29.538 19.002-6.036 9.756-14.667 18.737-24.374 25.24-9.885 6.57-21.271 11.043-32.662 12.906-7.921 8.484-17.993 15.472-28.921 19.989-9.895 4.119-21.148 6.309-31.931 6.309z" fill="#f08246"/><path d="m256 441.414c-11.803 0-23.774-2.607-34.343-7.416-11.261 2.655-23.495 2.878-35.09.581-11.57-2.296-22.79-7.187-32.206-13.973-11.593.401-23.642-1.765-34.552-6.274-10.874-4.495-20.924-11.487-28.855-20-11.406-1.89-23.012-6.44-32.647-12.895-9.778-6.501-18.289-15.317-24.424-25.222-10.844-4.057-21.137-10.67-29.488-19.021-2.814-2.812-4.395-6.627-4.395-10.606s1.58-7.794 4.394-10.607l241-241c3.522-3.522 8.564-5.063 13.454-4.121 4.892.946 8.993 4.259 10.948 8.84.343.802 34.542 80.943 61.942 145.309 24.032 56.149 36.224 115.664 36.224 176.864v3.342c0 5.004-2.495 9.679-6.653 12.464-2.121 1.42-21.152 13.963-35.954 16.899-11.523 2.299-23.759 2.075-35.079-.585-10.563 4.812-22.511 7.421-34.276 7.421z" fill="#fcd956"/><path d="m269.796 79.7c-1.955-4.581-6.057-7.894-10.948-8.84-.948-.183-1.901-.27-2.848-.269v370.823c11.765 0 23.713-2.608 34.275-7.421 11.32 2.66 23.556 2.884 35.079.585 14.802-2.937 33.833-15.479 35.954-16.899 4.158-2.785 6.653-7.46 6.653-12.464v-3.342c0-61.2-12.191-120.715-36.224-176.864-27.399-64.366-61.598-144.508-61.941-145.309z" fill="#ffbe00"/><g clip-rule="evenodd" fill="#ffebaa" fill-rule="evenodd"><circle cx="223.867" cy="233.613" r="15"/><circle cx="143.533" cy="313.946" r="15"/><circle cx="223.867" cy="313.946" r="15"/></g></g></svg>