<svg id="Filled" height="512" viewBox="0 0 512 512" width="512" xmlns="http://www.w3.org/2000/svg"><path d="m247.73 364.219c2.156 20.912-8.784 40.822-26.822 48.874-20.69 9.236-50.556 18.907-84.908 18.907s-64.218-9.671-84.908-18.907c-18.038-8.052-28.978-27.962-26.822-48.874l8.295-80.452c5.856-56.798 50.405-99.767 103.435-99.767 53.03 0 97.579 42.969 103.435 99.767z" fill="#e9eef2"/><path d="m190.9 376h-38.9v-8h-32v8h-38.9a25.1 25.1 0 0 0 -25.1 25.1v86.9h160v-86.9a25.1 25.1 0 0 0 -25.1-25.1z" fill="#f7cca9"/><path d="m216 416v72h-160v-72s52.73 6.32 80 40c26.31-33.68 80-40 80-40z" fill="#e9eef2"/><path d="m72 324.192a20.064 20.064 0 1 1 -11.832-36.192 19.979 19.979 0 0 1 6.723 1.15z" fill="#f0c6a4"/><path d="m200 324.192a20.064 20.064 0 1 0 11.832-36.192 19.979 19.979 0 0 0 -6.723 1.15z" fill="#f0c6a4"/><rect fill="#f7cca9" height="160" rx="70.654" width="144" x="64" y="216"/><path d="m448 316.192a20.064 20.064 0 1 0 11.832-36.192 19.979 19.979 0 0 0 -6.723 1.15z" fill="#f0c6a4"/><path d="m320 316.192a20.064 20.064 0 1 1 -11.832-36.192 19.979 19.979 0 0 1 6.723 1.15z" fill="#f0c6a4"/><rect fill="#f7cca9" height="160" rx="70.654" width="144" x="312" y="200"/><path d="m300.086 360h159.828a28.086 28.086 0 0 1 28.086 28.086v99.914a0 0 0 0 1 0 0h-216a0 0 0 0 1 0 0v-99.914a28.086 28.086 0 0 1 28.086-28.086z" fill="#6a7073"/><path d="m345.572 37.354a52.112 52.112 0 0 0 -69.67 0l-19.902 18.429-19.9-18.429a52.112 52.112 0 0 0 -69.67 0c-19.237 17.825-19.237 46.7 0 64.514l83.611 77.422a49.343 49.343 0 0 0 5.959 4.71 49.343 49.343 0 0 0 5.961-4.71l83.611-77.422c19.237-17.814 19.237-46.689 0-64.514z" fill="#eb423f"/><path d="m431.34 181.63c-.51-.53-1.01-1.05-1.53-1.56-51.03-50.77-134.85 7.2-140.47 37.53-7.2 38.82 16.93 52.06 16.93 52.06s28.59 11.23 45.55-15.52 56.18-22.14 56.18-22.14c16.96 32.1 48 40 48 40a60 60 0 0 0 24-48c0-37.54-48.66-42.37-48.66-42.37z" fill="#694435"/><path d="m336 384 48 104 48-104z" fill="#e9eef2"/><path d="m432 392-32-5.878v-20.898l32-5.224z" fill="#4f5659"/><path d="m336 392 32-5.878v-20.898l-32-5.224z" fill="#4f5659"/><path d="m208 286.65v1.35c-7.27 0-80-24-80-24s-38.56 17.03-64 24v-1.35a70.649 70.649 0 0 1 70.65-70.65h2.7a70.649 70.649 0 0 1 70.65 70.65z" fill="#694435"/><path d="m368 360h32v32h-32z" fill="#6a7073"/><path d="m351.008 107.737a51.27 51.27 0 0 0 0-76.251 60.109 60.109 0 0 0 -80.541 0l-14.467 13.394-14.467-13.4a60.109 60.109 0 0 0 -80.543 0 51.27 51.27 0 0 0 0 76.251l83.61 77.429a57.676 57.676 0 0 0 6.925 5.475 8 8 0 0 0 8.942 0 57.676 57.676 0 0 0 6.925-5.475zm-94.483 65.683c-.172.16-.348.319-.525.477-.177-.158-.353-.317-.525-.477l-83.612-77.42a35.276 35.276 0 0 1 0-52.772 44.113 44.113 0 0 1 58.8 0l19.9 18.428a8 8 0 0 0 10.872 0l19.9-18.429a44.114 44.114 0 0 1 58.8 0 35.276 35.276 0 0 1 0 52.772z"/><path d="m410.824 304.471a7.964 7.964 0 0 0 -10.285 4.642 18.006 18.006 0 0 1 -33.073.012 8 8 0 0 0 -14.956 5.684c.324.865 8.214 21.191 31.49 21.191s31.166-20.326 31.49-21.191a8.033 8.033 0 0 0 -4.666-10.338z"/><circle cx="352" cy="288" r="8"/><circle cx="416" cy="288" r="8"/><path d="m440 424a8 8 0 0 0 0 16h16a8 8 0 0 0 0-16z"/><path d="m456 448h-16a8 8 0 0 0 0 16h16a8 8 0 0 0 0-16z"/><path d="m454.95 324.894a28.043 28.043 0 1 0 13.242-52.885 67.6 67.6 0 0 0 19.808-48.009c0-33.688-33.058-47.085-52.918-49.967-21.311-20.92-50.507-27.217-82.553-17.707-34.395 10.2-66.933 37.6-71.054 59.817-5.871 31.657 6.933 48.757 15.021 56.1a28 28 0 1 0 16.554 52.648 80.56 80.56 0 0 0 23 27.106h-35.964a36.127 36.127 0 0 0 -36.086 36.089v99.914a8 8 0 0 0 8 8h216a8 8 0 0 0 8-8v-99.914a36.127 36.127 0 0 0 -36.086-36.086h-27.969a80.56 80.56 0 0 0 23.005-27.106zm25.05-24.894a12.185 12.185 0 0 1 -19.064 9.872 79.71 79.71 0 0 0 3.048-21.244 12.16 12.16 0 0 1 16.016 11.372zm-182.793-80.939c2.37-12.787 26.873-37.606 59.873-47.4 19.125-5.673 46.523-7.592 68.459 15.48a8.006 8.006 0 0 0 5.008 2.448 74.049 74.049 0 0 1 21.631 6.345c13.338 6.472 19.822 15.652 19.822 28.066a51.877 51.877 0 0 1 -17.58 39.063 75.187 75.187 0 0 1 -39.346-34.8 8 8 0 0 0 -6.138-4.209c-1.807-.211-44.445-4.853-63.874 25.8-5.471 8.632-12.979 13.362-22.316 14.057a36.029 36.029 0 0 1 -13.05-1.523c-2.779-1.825-18.047-13.361-12.489-43.327zm2.961 92.939a12 12 0 1 1 3.848-23.372 79.71 79.71 0 0 0 3.048 21.244 12.191 12.191 0 0 1 -6.896 2.128zm43.9 70.384-.065-.141v-12.831l16 2.612v7.434zm16.783 13.185a7.992 7.992 0 0 0 7.149 4.431h32a7.992 7.992 0 0 0 7.152-4.431l9.861 1.812-33.013 71.528-33.013-71.528zm63.149-13.326-.065.141-15.935-2.926v-7.434l16-2.612zm-32-14.243v16h-16v-16zm-112 20.086a20.109 20.109 0 0 1 20.086-20.086h27.914v24a7.99 7.99 0 0 0 6.507 7.855l36.993 80.145h-91.5zm200 0v91.914h-83.5l36.99-80.145a7.99 7.99 0 0 0 6.51-7.855v-24h19.914a20.109 20.109 0 0 1 20.086 20.086zm-160-100.086v-7.954c12.649-.009 27.939-4.845 38.576-21.627 11.175-17.631 35.172-18.913 44.589-18.69a91.278 91.278 0 0 0 44.835 38v10.271a64 64 0 0 1 -128 0z"/><path d="m255.688 363.4-8.294-80.452c-6.288-60.971-54.176-106.948-111.394-106.948s-105.106 45.977-111.394 106.946l-8.294 80.454c-2.492 24.164 10.469 47.6 31.519 57l.169-.38v67.98a8 8 0 0 0 8 8h160a8 8 0 0 0 8-8v-67.98l.169.378c21.05-9.398 34.011-32.836 31.519-56.998zm-47.688 45.785c-14.752 2.774-49.134 11.452-72.084 34.807-23.399-23.302-57.316-31.992-71.916-34.787v-8.105a17.117 17.117 0 0 1 17.1-17.1h22.9a32 32 0 0 0 64 0h22.9a17.117 17.117 0 0 1 17.1 17.1zm-56-25.185a16 16 0 0 1 -32 0v-1.61a80.308 80.308 0 0 0 32 0zm-16-16a64.072 64.072 0 0 1 -64-64v-10.08c13.169-4.311 34.848-12.893 55.881-21.536 22.506 7.41 56.171 18.246 72.119 22.148v9.468a64.072 64.072 0 0 1 -64 64zm-83.832-72a11.97 11.97 0 0 1 3.832.623v7.377a80.13 80.13 0 0 0 1.4 14.825 12.042 12.042 0 1 1 -5.232-22.825zm133.676-48.081a63.72 63.72 0 0 1 13.342 29.93c-10.769-2.977-29.211-8.671-48.6-14.906 17.02-7.153 30.87-13.125 35.258-15.024zm-112.82 28.753a63.929 63.929 0 0 1 100.151-40.719c-19.721 8.468-72.694 31.006-100.151 40.719zm142.976 27.328v-7.377a11.97 11.97 0 0 1 3.832-.623 12 12 0 1 1 -5.231 22.825 80.13 80.13 0 0 0 1.399-14.825zm-80-112c48.31 0 88.894 38.71 95.228 90.4a27.868 27.868 0 0 0 -15.6-2.072 79.992 79.992 0 0 0 -159.248 0 27.868 27.868 0 0 0 -15.6 2.072c6.326-51.69 46.91-90.4 95.22-90.4zm-103.772 173.039 3.536-34.3a28.166 28.166 0 0 0 26.189 3.5 80.432 80.432 0 0 0 26.102 33.761h-6.955a33.134 33.134 0 0 0 -33.1 33.1v.993c-10.983-8.042-17.292-22.324-15.772-37.054zm31.772 114.961v-54.43c15.488 3.355 47.371 12.725 65.782 35.464a8 8 0 0 0 6.218 2.966h.07a8 8 0 0 0 6.235-3.076c12.316-15.77 31.728-24.952 45.843-29.879a163.063 163.063 0 0 1 19.852-5.521v54.476zm160-77.91v-.99a33.134 33.134 0 0 0 -33.1-33.1h-6.958a80.432 80.432 0 0 0 26.1-33.76 28.166 28.166 0 0 0 26.189-3.5l3.536 34.3c1.525 14.729-4.784 29.011-15.767 37.05z"/><path d="m162.824 320.471a7.963 7.963 0 0 0 -10.285 4.642 18.006 18.006 0 0 1 -33.073.012 8 8 0 0 0 -14.956 5.684c.324.865 8.214 21.191 31.49 21.191s31.166-20.326 31.49-21.191a8.033 8.033 0 0 0 -4.666-10.338z"/><circle cx="168" cy="304" r="8"/><circle cx="104" cy="304" r="8"/></svg>